# File created by Blade
# Date/Time:  Wed Jan 28 16:58:26 2015
#---------------------------------------------------------
:version 1.10
:name HOM
:units
  mass 1.0
  length 1.000000
  angle deg
:documentation
     Acclaim Skeleton File
:root
   axis xyz
   order TX TY TZ RX RY RZ
   position 0.000000 0.000000 0.000000
   orientation 0 0 0
:bonedata
   begin
      id 1
      name Spine_dum
      direction 0.000000 1.000000 0.000000
      length 9.621153
      axis 0.0 0.0 0.0 xyz
   end
   begin
      id 2
      name LeftUpLeg_dum
      direction 1.000000 0.000000 0.000000
      length 2.700595
      axis 0.0 0.0 0.0 xyz
   end
   begin
      id 3
      name RightUpLeg_dum
      direction -1.000000 0.000000 0.000000
      length 2.700595
      axis 0.0 0.0 0.0 xyz
   end
   begin
      id 4
      name Spine
      direction 0.000000 1.000000 0.000000
      length 0.000000
      axis 0.0 0.0 0.0 xyz
      dof rx ry rz
   end
   begin
      id 5
      name Spine_dum1
      direction 0.000000 1.000000 0.000000
      length 12.771951
      axis 0.0 0.0 0.0 xyz
   end
   begin
      id 6
      name Spine_dum2
      direction 0.000000 1.000000 0.000000
      length 7.400569
      axis 0.0 0.0 0.0 xyz
   end
   begin
      id 7
      name Spine_dum3
      direction 0.000000 1.000000 0.000000
      length 7.400569
      axis 0.0 0.0 0.0 xyz
   end
   begin
      id 8
      name Head
      direction 0.000000 1.000000 0.000000
      length 4.527550
      axis 0.0 0.0 0.0 xyz
      dof rx ry rz
   end
   begin
      id 9
      name LeftShoulder
      direction 1.000000 0.000000 0.000000
      length 8.349299
      axis 0.0 0.0 -90.0 xyz
      dof rx ry rz
   end
   begin
      id 10
      name LeftArm
      direction 1.000000 0.000000 0.000000
      length 11.334839
      axis 0.0 0.0 -90.0 xyz
      dof rx ry rz
   end
   begin
      id 11
      name LeftForeArm
      direction 1.000000 0.000000 0.000000
      length 9.694182
      axis 0.0 0.0 -90.0 xyz
      dof ry rz rx
   end
   begin
      id 12
      name LeftHand
      direction 0.000000 0.000000 0.000000
      length 0.000000
      axis 0.0 0.0 -90.0 xyz
      dof rx ry rz
   end
   begin
      id 13
      name LeftHand_dum1
      direction 0.000000 0.000000 0.000000
      length 0.000000
      axis 0.0 0.0 -90.0 xyz
   end
   begin
      id 14
      name LeftHand_dum2
      direction 1.000000 0.000000 0.000000
      length 3.937000
      axis 0.0 0.0 -90.0 xyz
   end
   begin
      id 15
      name LeftHandThumb1
      direction 0.000000 0.000000 1.000000
      length 3.937000
      axis 0.0 0.0 -90.0 xyz
      dof rx rz ry
   end
   begin
      id 16
      name RightShoulder
      direction -1.000000 0.000000 0.000000
      length 8.349299
      axis 0.0 0.0 90.0 xyz
      dof rx ry rz
   end
   begin
      id 17
      name RightArm
      direction -1.000000 0.000000 0.000000
      length 11.334839
      axis 0.0 0.0 90.0 xyz
      dof rx ry rz
   end
   begin
      id 18
      name RightForeArm
      direction -1.000000 0.000000 0.000000
      length 9.694182
      axis 0.0 0.0 90.0 xyz
      dof ry rz rx
   end
   begin
      id 19
      name RightHand
      direction 0.000000 0.000000 0.000000
      length 0.000000
      axis 0.0 0.0 90.0 xyz
      dof rx ry rz
   end
   begin
      id 20
      name RightHand_dum1
      direction 0.000000 0.000000 0.000000
      length 0.000000
      axis 0.0 0.0 90.0 xyz
   end
   begin
      id 21
      name RightHand_dum2
      direction -1.000000 0.000000 0.000000
      length 3.937000
      axis 0.0 0.0 90.0 xyz
   end
   begin
      id 22
      name RightHandThumb1
      direction 0.000000 0.000000 1.000000
      length 3.937000
      axis 0.0 0.0 90.0 xyz
      dof rx rz ry
   end
   begin
      id 23
      name LeftUpLeg
      direction 0.000000 -1.000000 0.000000
      length 16.757176
      axis 0.0 0.0 0.0 xyz
      dof rx ry rz
   end
   begin
      id 24
      name LeftLeg
      direction 0.000000 -1.000000 0.000000
      length 16.759153
      axis 0.0 0.0 0.0 xyz
      dof rx ry rz
   end
   begin
      id 25
      name LeftFoot
      direction 0.000000 -0.258819 0.965926
      length 5.841289
      axis 15.0 0.0 0.0 xyz
      dof rx ry rz
   end
   begin
      id 26
      name LeftToeBase
      direction 0.000000 0.000000 1.000000
      length 2.952750
      axis 0.0 0.0 0.0 xyz
      dof rx ry rz
   end
   begin
      id 27
      name RightUpLeg
      direction 0.000000 -1.000000 0.000000
      length 16.757176
      axis 0.0 0.0 0.0 xyz
      dof rx ry rz
   end
   begin
      id 28
      name RightLeg
      direction 0.000000 -1.000000 0.000000
      length 16.759153
      axis 0.0 0.0 0.0 xyz
      dof rx ry rz
   end
   begin
      id 29
      name RightFoot
      direction 0.000000 -0.258819 0.965926
      length 5.841289
      axis 15.0 0.0 0.0 xyz
      dof rx ry rz
   end
   begin
      id 30
      name RightToeBase
      direction 0.000000 0.000000 1.000000
      length 2.952750
      axis 0.0 0.0 0.0 xyz
      dof rx ry rz
   end
:hierarchy
   begin
      root Spine_dum LeftUpLeg_dum RightUpLeg_dum
      Spine_dum Spine
      LeftUpLeg_dum LeftUpLeg
      RightUpLeg_dum RightUpLeg
      Spine Spine_dum1 Spine_dum2 Spine_dum3
      Spine_dum1 Head
      Spine_dum2 LeftShoulder
      Spine_dum3 RightShoulder
      LeftShoulder LeftArm
      LeftArm LeftForeArm
      LeftForeArm LeftHand
      LeftHand LeftHand_dum1 LeftHand_dum2
      LeftHand_dum1 LeftHandThumb1
      RightShoulder RightArm
      RightArm RightForeArm
      RightForeArm RightHand
      RightHand RightHand_dum1 RightHand_dum2
      RightHand_dum1 RightHandThumb1
      LeftUpLeg LeftLeg
      LeftLeg LeftFoot
      LeftFoot LeftToeBase
      RightUpLeg RightLeg
      RightLeg RightFoot
      RightFoot RightToeBase
   end

# File created by Blade
# Date/Time:  Wed Jan 28 16:58:32 2015
# Frame Rate: 120.000 fps
#------------------------------------------------------
:FULLY-SPECIFIED
:DEGREES
2415
root 11.166879 37.347151 -18.305249 212.164663 11.141223 -141.970537
Spine 23.095695 0.376846 13.134542
Head 10.978670 -10.671880 45.947018
LeftShoulder -10.276613 -1.764528 32.641494
LeftArm 58.584154 -45.536731 -72.308099
LeftForeArm -27.699140 -0.000000 117.842154
LeftHand -18.671255 -0.000000 25.462410
LeftHandThumb1 -26.253704 0.000000 33.147579
RightShoulder -19.590927 -6.427027 -1.443677
RightArm 11.921145 -19.778812 68.342867
RightForeArm -11.886100 -0.000000 39.548609
RightHand -15.233097 -0.000000 0.457205
RightHandThumb1 -24.326973 -0.000000 -32.862282
LeftUpLeg -23.040470 20.626940 26.029633
LeftLeg 6.993024 -0.000000 -0.000000
LeftFoot -12.930283 22.555833 -7.380378
LeftToeBase 11.564522 -0.000000 -0.000000
RightUpLeg -21.260058 -20.050454 -23.907650
RightLeg 96.591579 -0.000000 -0.000000
RightFoot 3.176342 -9.522989 23.261332
RightToeBase -1.620851 -0.000000 0.000000
2416
root 11.188969 37.378687 -18.287471 212.475771 10.917897 -141.549340
Spine 23.153155 0.347827 13.451271
Head 10.781874 -10.351022 45.990533
LeftShoulder -10.453822 -1.786062 32.776658
LeftArm 59.009429 -45.813468 -72.581533
LeftForeArm -28.126828 -0.000000 117.950727
LeftHand -18.781120 -0.000000 25.309691
LeftHandThumb1 -26.253704 0.000000 33.147579
RightShoulder -19.522418 -6.396363 -1.584151
RightArm 11.863667 -19.428241 68.329099
RightForeArm -11.780776 -0.000000 39.042973
RightHand -15.675421 -0.000000 -0.628776
RightHandThumb1 -24.326973 -0.000000 -32.862282
LeftUpLeg -23.381065 21.101437 26.335669
LeftLeg 7.077876 -0.000000 -0.000000
LeftFoot -12.764847 22.314041 -7.343275
LeftToeBase 11.450767 -0.000000 -0.000000
RightUpLeg -20.649636 -20.647518 -25.439484
RightLeg 96.089349 -0.000000 -0.000000
RightFoot 2.140583 -10.201382 22.629595
RightToeBase -2.040436 -0.000000 0.000000
2417
root 11.211522 37.415419 -18.264582 212.827344 10.668361 -141.086152
Spine 23.176480 0.343111 13.885622
Head 10.536740 -10.105764 45.961315
LeftShoulder -10.531206 -1.908526 32.874354
LeftArm 59.247427 -46.174350 -72.709005
LeftForeArm -28.645950 -0.000000 118.113955
LeftHand -18.930032 0.000000 25.227130
LeftHandThumb1 -26.253704 0.000000 33.147579
RightShoulder -19.490534 -6.380323 -1.742408
RightArm 11.758249 -18.965112 68.313361
RightForeArm -11.512459 -0.000000 38.589632
RightHand -15.989551 0.000000 -1.787142
RightHandThumb1 -24.326973 -0.000000 -32.862282
LeftUpLeg -23.753763 21.600322 26.669761
LeftLeg 7.130118 -0.000000 -0.000000
LeftFoot -12.586802 22.107280 -7.333498
LeftToeBase 11.390304 -0.000000 -0.000000
RightUpLeg -20.129528 -21.247399 -26.851942
RightLeg 95.628444 -0.000000 -0.000000
RightFoot 1.537887 -11.089633 21.793287
RightToeBase -3.032249 -0.000000 0.000000
2418
root 11.231381 37.451879 -18.234744 213.200291 10.409881 -140.647935
Spine 23.166533 0.224870 14.268872
Head 10.395729 -9.783596 45.928101
LeftShoulder -10.690659 -1.947614 32.970816
LeftArm 59.512287 -46.513040 -72.814078
LeftForeArm -29.112311 0.000000 118.255076
LeftHand -19.093056 -0.000000 25.205967
LeftHandThumb1 -26.253704 0.000000 33.147579
RightShoulder -19.436151 -6.354818 -1.919413
RightArm 11.646248 -18.464804 68.357920
RightForeArm -11.533548 -0.000000 38.182330
RightHand -16.442197 -0.000000 -2.722386
RightHandThumb1 -24.326973 -0.000000 -32.862282
LeftUpLeg -24.151994 22.004450 26.986532
LeftLeg 7.146679 -0.000000 -0.000000
LeftFoot -12.380315 22.049722 -7.324180
LeftToeBase 11.290233 -0.000000 -0.000000
RightUpLeg -19.696397 -21.817199 -28.237395
RightLeg 95.318910 -0.000000 -0.000000
RightFoot 0.970008 -11.934505 21.469014
RightToeBase -2.293159 -0.000000 0.000000
2419
root 11.258854 37.491093 -18.206823 213.529613 10.192844 -140.200454
Spine 23.200097 0.198165 14.599244
Head 10.295924 -9.532193 45.995304
LeftShoulder -10.766290 -2.071397 33.141818
LeftArm 59.708139 -46.911944 -72.938688
LeftForeArm -29.968950 -0.000000 118.418059
LeftHand -18.907866 -0.000000 25.219831
LeftHandThumb1 -26.253704 0.000000 33.147579
RightShoulder -19.413356 -6.367825 -1.987104
RightArm 11.543446 -17.945285 68.351489
RightForeArm -11.496869 -0.000000 37.773171
RightHand -16.894238 0.000000 -4.115669
RightHandThumb1 -24.326973 -0.000000 -32.862282
LeftUpLeg -24.475516 22.500718 27.262750
LeftLeg 7.108722 -0.000000 -0.000000
LeftFoot -12.127941 22.037512 -7.292170
LeftToeBase 11.131856 -0.000000 -0.000000
RightUpLeg -19.273940 -22.331845 -29.607104
RightLeg 95.102138 -0.000000 -0.000000
RightFoot 0.571137 -12.815559 21.164396
RightToeBase -1.567195 -0.000000 0.000000
2420
root 11.285219 37.533623 -18.173325 213.869126 10.066222 -139.686924
Spine 23.255785 0.324986 14.939759
Head 10.177658 -9.355061 46.134686
LeftShoulder -10.770344 -2.260393 33.356092
LeftArm 59.751913 -47.241768 -72.858803
LeftForeArm -30.275894 -0.000000 118.539013
LeftHand -19.013354 0.000000 25.366021
LeftHandThumb1 -26.253704 0.000000 33.147579
RightShoulder -19.476887 -6.469831 -2.030918
RightArm 11.562421 -17.423491 68.345174
RightForeArm -11.266649 -0.000000 37.285616
RightHand -17.097605 -0.000000 -5.599769
RightHandThumb1 -24.326973 -0.000000 -32.862282
LeftUpLeg -24.750143 23.134041 27.518923
LeftLeg 7.046851 -0.000000 -0.000000
LeftFoot -11.858421 22.109846 -7.270659
LeftToeBase 10.940155 -0.000000 -0.000000
RightUpLeg -19.009748 -22.636133 -30.838749
RightLeg 94.996736 -0.000000 -0.000000
RightFoot 0.359950 -13.686112 20.875436
RightToeBase -0.744700 -0.000000 0.000000
2421
root 11.302525 37.574587 -18.134456 214.235729 9.917319 -139.229347
Spine 23.283413 0.286195 15.254153
Head 10.153805 -9.033012 46.128208
LeftShoulder -10.870658 -2.347827 33.469332
LeftArm 59.891197 -47.640066 -72.809812
LeftForeArm -30.813589 -0.000000 118.566929
LeftHand -18.958731 -0.000000 25.156269
LeftHandThumb1 -26.253704 0.000000 33.147579
RightShoulder -19.465402 -6.419929 -2.192022
RightArm 11.456270 -16.952493 68.402846
RightForeArm -11.155245 0.000000 36.817933
RightHand -17.357660 -0.000000 -7.030142
RightHandThumb1 -24.326973 -0.000000 -32.862282
LeftUpLeg -25.145207 23.734528 27.645960
LeftLeg 7.000652 -0.000000 -0.000000
LeftFoot -11.562850 22.385089 -7.236938
LeftToeBase 10.687187 -0.000000 -0.000000
RightUpLeg -18.828090 -22.945237 -32.037705
RightLeg 94.946418 -0.000000 -0.000000
RightFoot 0.394600 -14.588180 20.430205
RightToeBase -0.963680 -0.000000 0.000000
